<?xml version="1.0" encoding="UTF-8"?>
<svg id="Layer_2" data-name="Layer 2" xmlns="http://www.w3.org/2000/svg" viewBox="0 0 693.04 151.15">
  <defs>
    <style>
      .cls-1 {
        fill: #fff;
      }

      .cls-2 {
        fill: #ef3333;
      }
    </style>
  </defs>
  <g id="Layer_1-2" data-name="Layer 1">
    <g>
      <g>
        <rect class="cls-2" y="46.23" width="58.2" height="19.43"/>
        <polygon class="cls-1" points="77.54 65.65 96.97 65.65 96.97 64.6 96.97 46.22 77.54 46.22 77.54 65.65"/>
        <rect class="cls-2" x="77.55" y="84.99" width="19.43" height="58.19"/>
        <polygon class="cls-1" points="56.39 105.18 56.39 86.8 36.97 86.8 36.97 106.23 56.39 106.23 56.39 105.18"/>
        <polygon class="cls-1" points="120.74 100 140.17 100 140.17 98.95 140.17 80.57 120.74 80.57 120.74 100"/>
        <polygon class="cls-2" points="140.17 0 140.17 61.23 120.74 61.23 120.74 19.43 81.97 19.43 81.97 0 140.17 0"/>
        <polygon class="cls-1" points="62.62 18.38 62.62 0 43.2 0 43.2 19.43 62.62 19.43 62.62 18.38"/>
      </g>
      <g>
        <path class="cls-1" d="M176.47,116.01V10h41.95c7.37,0,13.55,1.16,18.55,3.48,5,2.32,8.78,5.53,11.36,9.62,2.57,4.09,3.86,8.76,3.86,14.01s-1.16,9.84-3.48,13.48c-2.32,3.63-5.38,6.41-9.16,8.33-3.79,1.92-7.9,3.13-12.34,3.63l2.27-1.67c4.85.1,9.16,1.34,12.95,3.71,3.79,2.37,6.76,5.53,8.93,9.47,2.17,3.94,3.26,8.28,3.26,13.02,0,5.55-1.34,10.53-4.01,14.92-2.68,4.39-6.59,7.83-11.74,10.3-5.15,2.47-11.46,3.71-18.93,3.71h-43.46ZM194.64,54.83h21.2c5.75,0,10.15-1.34,13.18-4.01,3.03-2.68,4.54-6.39,4.54-11.13s-1.49-8.3-4.47-10.98c-2.98-2.68-7.45-4.01-13.4-4.01h-21.05v30.14ZM194.64,101.17h22.72c5.96,0,10.57-1.39,13.86-4.16,3.28-2.78,4.92-6.74,4.92-11.89s-1.69-9.06-5.07-12.04c-3.38-2.98-8.1-4.47-14.16-4.47h-22.26v32.56Z"/>
        <path class="cls-1" d="M296.26,117.83c-7.57,0-14.26-1.64-20.07-4.92-5.81-3.28-10.35-7.85-13.63-13.71-3.28-5.85-4.92-12.62-4.92-20.29s1.61-14.66,4.85-20.67c3.23-6.01,7.77-10.7,13.63-14.08,5.85-3.38,12.62-5.07,20.29-5.07s13.86,1.62,19.46,4.85c5.6,3.23,9.94,7.6,13.02,13.1,3.08,5.5,4.62,11.69,4.62,18.55v3.33c0,1.21-.1,2.53-.3,3.94h-62.39v-11.81h44.37c-.3-5.25-2.22-9.41-5.76-12.49-3.53-3.08-7.87-4.62-13.02-4.62-3.74,0-7.19.83-10.37,2.5-3.18,1.67-5.73,4.14-7.65,7.42-1.92,3.28-2.88,7.45-2.88,12.49v4.39c0,4.64.93,8.63,2.8,11.96,1.87,3.33,4.37,5.86,7.5,7.57,3.13,1.72,6.61,2.57,10.45,2.57,4.14,0,7.62-.93,10.45-2.8,2.83-1.87,4.9-4.37,6.21-7.5h18.48c-1.31,4.85-3.61,9.16-6.89,12.95-3.28,3.79-7.3,6.79-12.04,9.01-4.75,2.22-10.15,3.33-16.2,3.33Z"/>
        <path class="cls-1" d="M340.48,116.01V40.9h18.17v11.66c2.52-4.14,5.93-7.42,10.22-9.84,4.29-2.42,9.21-3.63,14.77-3.63,9.29,0,16.51,2.9,21.66,8.71,5.15,5.81,7.72,14.31,7.72,25.52v42.71h-18.17v-40.89c0-6.76-1.39-11.89-4.17-15.37-2.78-3.48-6.99-5.22-12.65-5.22s-10.17,1.97-13.86,5.91c-3.69,3.94-5.53,9.54-5.53,16.81v38.77h-18.17Z"/>
        <path class="cls-1" d="M462.39,151.15c-6.46,0-12.57-1.06-18.32-3.18-5.75-2.12-10.6-5.4-14.54-9.84-3.94-4.44-6.36-10.1-7.27-16.96h18.02c1.11,4.34,3.63,7.8,7.57,10.37,3.94,2.57,8.68,3.86,14.24,3.86,3.94,0,7.59-.83,10.98-2.5,3.38-1.67,6.06-4.22,8.03-7.65,1.97-3.43,2.95-7.77,2.95-13.02v-9.69c-1.51,2.53-3.48,4.85-5.91,6.97-2.42,2.12-5.35,3.84-8.78,5.15-3.43,1.31-7.37,1.97-11.81,1.97-7.07,0-13.45-1.69-19.16-5.07-5.71-3.38-10.22-8.03-13.55-13.93-3.33-5.91-5-12.54-5-19.91s1.67-13.83,5-19.69c3.33-5.85,7.85-10.47,13.55-13.86,5.7-3.38,12.14-5.07,19.31-5.07,5.95,0,11.21,1.24,15.75,3.71,4.54,2.48,8.08,5.58,10.6,9.31v-11.21h18.17v70.57c0,8.58-1.79,15.83-5.38,21.73-3.58,5.91-8.38,10.37-14.39,13.4-6.01,3.03-12.7,4.54-20.07,4.54ZM461.18,100.87c4.44,0,8.35-1.01,11.74-3.03,3.38-2.02,6.06-4.77,8.03-8.25,1.97-3.48,2.95-7.39,2.95-11.74s-.98-8.38-2.95-11.81c-1.97-3.43-4.64-6.13-8.03-8.1-3.38-1.97-7.3-2.95-11.74-2.95s-8.38.98-11.81,2.95c-3.43,1.97-6.11,4.64-8.03,8.03-1.92,3.38-2.88,7.3-2.88,11.74s.96,8.4,2.88,11.89c1.92,3.48,4.59,6.24,8.03,8.25,3.43,2.02,7.37,3.03,11.81,3.03Z"/>
        <path class="cls-1" d="M536.75,117.83c-5.75,0-10.65-1.04-14.69-3.1-4.04-2.07-7.12-4.82-9.24-8.25-2.12-3.43-3.18-7.17-3.18-11.21,0-7.88,2.85-13.98,8.56-18.32,5.7-4.34,13.2-6.51,22.49-6.51,4.24,0,8,.33,11.28.98,3.28.66,5.93,1.29,7.95,1.89v-3.48c0-5.55-1.54-9.64-4.62-12.27-3.08-2.62-7.09-3.94-12.04-3.94-3.63,0-6.87.73-9.69,2.2-2.83,1.47-4.64,4.12-5.45,7.95h-17.27c.61-5.45,2.42-9.99,5.45-13.63,3.03-3.63,6.89-6.39,11.59-8.25,4.7-1.87,9.82-2.8,15.37-2.8,11,0,19.56,2.7,25.67,8.1,6.11,5.4,9.16,12.95,9.16,22.64v18.32c0,3.84.23,6.64.68,8.4.45,1.77,1.21,2.88,2.27,3.33,1.06.45,2.45.68,4.17.68h.76v15.45h-4.09c-5.15,0-9.46-.73-12.95-2.2-3.48-1.46-5.93-4.37-7.35-8.71-2.52,3.63-5.86,6.66-9.99,9.09-4.14,2.42-9.09,3.63-14.84,3.63ZM540.69,103.75c3.53,0,6.56-.83,9.09-2.5,2.52-1.67,4.57-3.88,6.13-6.66,1.56-2.78,2.6-5.83,3.11-9.16-2.12-.61-4.65-1.21-7.57-1.82-2.93-.6-5.91-.91-8.93-.91-4.54,0-8.1,1.01-10.68,3.03-2.57,2.02-3.86,4.75-3.86,8.18,0,2.83,1.14,5.18,3.41,7.04,2.27,1.87,5.38,2.8,9.31,2.8Z"/>
        <path class="cls-1" d="M591.12,116.01V6.98h18.17v109.04h-18.17Z"/>
        <path class="cls-1" d="M643.82,117.83c-5.76,0-10.65-1.04-14.69-3.1-4.04-2.07-7.12-4.82-9.24-8.25-2.12-3.43-3.18-7.17-3.18-11.21,0-7.88,2.85-13.98,8.56-18.32,5.7-4.34,13.2-6.51,22.49-6.51,4.24,0,8,.33,11.28.98,3.28.66,5.93,1.29,7.95,1.89v-3.48c0-5.55-1.54-9.64-4.62-12.27-3.08-2.62-7.09-3.94-12.04-3.94-3.63,0-6.87.73-9.69,2.2-2.83,1.47-4.64,4.12-5.45,7.95h-17.26c.6-5.45,2.42-9.99,5.45-13.63,3.03-3.63,6.89-6.39,11.59-8.25,4.69-1.87,9.82-2.8,15.37-2.8,11,0,19.56,2.7,25.67,8.1,6.11,5.4,9.16,12.95,9.16,22.64v18.32c0,3.84.23,6.64.68,8.4.45,1.77,1.21,2.88,2.27,3.33,1.06.45,2.45.68,4.17.68h.76v15.45h-4.09c-5.15,0-9.47-.73-12.95-2.2-3.48-1.46-5.93-4.37-7.34-8.71-2.53,3.63-5.86,6.66-9.99,9.09-4.14,2.42-9.09,3.63-14.84,3.63ZM647.76,103.75c3.53,0,6.56-.83,9.09-2.5,2.52-1.67,4.57-3.88,6.13-6.66,1.56-2.78,2.6-5.83,3.1-9.16-2.12-.61-4.64-1.21-7.57-1.82-2.93-.6-5.91-.91-8.94-.91-4.54,0-8.1,1.01-10.68,3.03-2.57,2.02-3.86,4.75-3.86,8.18,0,2.83,1.14,5.18,3.41,7.04,2.27,1.87,5.38,2.8,9.31,2.8Z"/>
      </g>
    </g>
  </g>
</svg>